<svg width="207" height="413" viewBox="0 0 207 413" fill="none" xmlns="http://www.w3.org/2000/svg">
<path d="M206.53 98.1435H204.257V35.9648C204.254 26.4253 200.451 17.2775 193.685 10.5332C186.919 3.78877 177.744 -2.84172e-08 168.177 4.69361e-07H36.0865C31.3479 -0.000762733 26.6554 0.929233 22.2773 2.73688C17.8991 4.54452 13.9209 7.19441 10.5699 10.5352C7.21883 13.876 4.56063 17.8423 2.74704 22.2075C0.933448 26.5728 -6.18166e-08 31.2515 0 35.9765H0V377.023C0 386.565 3.80135 395.716 10.5678 402.463C17.3342 409.21 26.5115 413 36.0807 413H168.171C172.909 413.001 177.602 412.071 181.98 410.263C186.358 408.455 190.336 405.806 193.687 402.465C197.038 399.124 199.697 395.158 201.51 390.792C203.324 386.427 204.257 381.748 204.257 377.023V142.372H206.53V98.1435Z" fill="#3F3D56"/>
<path d="M196.856 33.5707V379.429C196.856 386.667 193.975 393.609 188.845 398.73C183.716 403.851 176.758 406.732 169.499 406.741H34.6994C27.4348 406.741 20.4677 403.864 15.3308 398.742C10.194 393.62 7.30811 386.673 7.30811 379.429V33.5707C7.31583 26.3321 10.2051 19.3926 15.3411 14.2769C20.4771 9.16112 27.4398 6.28759 34.6994 6.2876H51.0467C50.2454 8.25664 49.9411 10.3917 50.1605 12.5054C50.3799 14.6191 51.1163 16.6468 52.305 18.4104C53.4938 20.1741 55.0986 21.6198 56.9785 22.6207C58.8585 23.6216 60.9561 24.147 63.0872 24.1509H139.94C142.072 24.1489 144.17 23.6246 146.051 22.6241C147.932 21.6236 149.537 20.1775 150.726 18.4131C151.914 16.6488 152.65 14.6202 152.868 12.5058C153.086 10.3914 152.779 8.25606 151.975 6.2876H169.493C176.747 6.29529 183.701 9.17142 188.831 14.2851C193.96 19.3987 196.846 26.3323 196.856 33.5649V33.5707Z" fill="white"/>
<path d="M102.064 172.415C133.147 172.415 158.345 147.29 158.345 116.297C158.345 85.3044 133.147 60.1796 102.064 60.1796C70.9817 60.1796 45.7842 85.3044 45.7842 116.297C45.7842 147.29 70.9817 172.415 102.064 172.415Z" fill="#6C63FF"/>
<path d="M163.444 232.792H43.657C43.069 232.789 42.506 232.555 42.0903 232.14C41.6745 231.726 41.4396 231.164 41.4365 230.578V200.942C41.4411 200.357 41.6769 199.798 42.0927 199.385C42.5084 198.973 43.0706 198.741 43.657 198.739H163.444C164.032 198.741 164.595 198.975 165.011 199.39C165.426 199.805 165.659 200.367 165.659 200.953V230.59C165.659 231.176 165.426 231.738 165.011 232.153C164.595 232.568 164.032 232.802 163.444 232.804V232.792ZM43.657 199.623C43.304 199.624 42.9661 199.765 42.717 200.014C42.468 200.264 42.3282 200.601 42.3282 200.953V230.59C42.3282 230.941 42.4682 231.278 42.7174 231.527C42.9666 231.775 43.3046 231.915 43.657 231.915H163.444C163.797 231.915 164.135 231.775 164.384 231.527C164.633 231.278 164.773 230.941 164.773 230.59V200.953C164.773 200.601 164.633 200.264 164.384 200.014C164.135 199.765 163.797 199.624 163.444 199.623H43.657Z" fill="#E6E6E6"/>
<path d="M80.6993 209.408C80.3038 209.433 79.9325 209.606 79.661 209.894C79.3895 210.182 79.2384 210.562 79.2384 210.957C79.2384 211.352 79.3895 211.732 79.661 212.02C79.9325 212.308 80.3038 212.482 80.6993 212.506H153.904C154.304 212.501 154.686 212.344 154.973 212.066C155.259 211.788 155.427 211.411 155.442 211.012C155.457 210.614 155.318 210.226 155.053 209.927C154.788 209.628 154.419 209.443 154.02 209.408H80.6993Z" fill="#E6E6E6"/>
<path d="M80.6993 218.695C80.3038 218.719 79.9325 218.892 79.661 219.18C79.3895 219.468 79.2384 219.848 79.2384 220.243C79.2384 220.638 79.3895 221.019 79.661 221.306C79.9325 221.594 80.3038 221.768 80.6993 221.792H153.904C154.107 221.8 154.311 221.767 154.502 221.696C154.693 221.626 154.868 221.518 155.017 221.38C155.166 221.242 155.287 221.076 155.372 220.891C155.457 220.707 155.505 220.507 155.512 220.304C155.52 220.101 155.488 219.899 155.417 219.708C155.346 219.518 155.238 219.343 155.1 219.194C154.961 219.045 154.794 218.925 154.609 218.84C154.424 218.756 154.224 218.708 154.02 218.7H80.6993V218.695Z" fill="#E6E6E6"/>
<path d="M163.444 282.175H43.657C43.069 282.172 42.506 281.938 42.0903 281.523C41.6745 281.109 41.4396 280.547 41.4365 279.961V250.324C41.4442 249.742 41.6813 249.185 42.0967 248.775C42.5121 248.366 43.0725 248.135 43.657 248.134H163.444C164.032 248.135 164.595 248.369 165.011 248.784C165.426 249.199 165.659 249.761 165.659 250.348V279.984C165.653 280.566 165.417 281.123 165.002 281.533C164.588 281.943 164.028 282.173 163.444 282.175ZM43.657 249.005C43.304 249.007 42.9661 249.148 42.717 249.397C42.468 249.646 42.3282 249.984 42.3282 250.336V279.973C42.3282 280.324 42.468 280.662 42.717 280.911C42.9661 281.161 43.304 281.302 43.657 281.303H163.444C163.797 281.302 164.135 281.161 164.384 280.911C164.633 280.662 164.773 280.324 164.773 279.973V250.336C164.773 249.984 164.633 249.646 164.384 249.397C164.135 249.148 163.797 249.007 163.444 249.005H43.657Z" fill="#E6E6E6"/>
<path d="M80.6993 258.954C80.3038 258.978 79.9325 259.152 79.661 259.439C79.3895 259.727 79.2384 260.107 79.2384 260.502C79.2384 260.898 79.3895 261.278 79.661 261.565C79.9325 261.853 80.3038 262.027 80.6993 262.051H153.904C154.3 262.035 154.676 261.867 154.953 261.584C155.23 261.301 155.388 260.923 155.394 260.527C155.401 260.131 155.256 259.748 154.989 259.456C154.721 259.163 154.352 258.984 153.956 258.954H80.6993Z" fill="#E6E6E6"/>
<path d="M80.6993 268.246C80.2881 268.246 79.8938 268.409 79.6031 268.698C79.3124 268.988 79.149 269.382 79.149 269.791C79.149 270.201 79.3124 270.595 79.6031 270.884C79.8938 271.174 80.2881 271.337 80.6993 271.337H153.904C154.315 271.344 154.712 271.188 155.008 270.903C155.303 270.618 155.473 270.228 155.48 269.818C155.487 269.408 155.331 269.012 155.045 268.717C154.759 268.422 154.367 268.253 153.956 268.246H80.6993Z" fill="#E6E6E6"/>
<path d="M163.444 331.714H43.657C43.3644 331.714 43.0747 331.657 42.8046 331.545C42.5344 331.433 42.2891 331.269 42.0828 331.062C41.8764 330.855 41.7131 330.61 41.6022 330.34C41.4913 330.07 41.435 329.781 41.4366 329.489V299.852C41.4381 299.266 41.6727 298.704 42.089 298.29C42.5052 297.876 43.0691 297.644 43.657 297.644H163.444C163.735 297.644 164.023 297.701 164.292 297.812C164.56 297.923 164.805 298.086 165.01 298.291C165.216 298.496 165.379 298.739 165.49 299.007C165.602 299.275 165.659 299.562 165.659 299.852V329.489C165.659 330.075 165.426 330.637 165.011 331.052C164.595 331.467 164.032 331.701 163.444 331.703V331.714ZM43.657 298.551C43.3086 298.551 42.9741 298.687 42.7256 298.93C42.477 299.174 42.3343 299.505 42.3282 299.852V329.489C42.3282 329.84 42.4682 330.177 42.7174 330.426C42.9666 330.674 43.3046 330.814 43.657 330.814H163.444C163.797 330.814 164.135 330.674 164.384 330.426C164.633 330.177 164.773 329.84 164.773 329.489V299.852C164.773 299.501 164.633 299.164 164.384 298.915C164.135 298.667 163.797 298.527 163.444 298.527L43.657 298.551Z" fill="#E6E6E6"/>
<path d="M80.6993 308.499C80.3038 308.523 79.9325 308.697 79.661 308.985C79.3895 309.273 79.2384 309.653 79.2384 310.048C79.2384 310.443 79.3895 310.823 79.661 311.111C79.9325 311.399 80.3038 311.572 80.6993 311.596H153.904C154.304 311.592 154.686 311.435 154.973 311.157C155.259 310.879 155.427 310.501 155.442 310.103C155.457 309.705 155.318 309.316 155.053 309.018C154.788 308.719 154.419 308.533 154.02 308.499H80.6993Z" fill="#E6E6E6"/>
<path d="M80.6993 317.785C80.3038 317.809 79.9325 317.983 79.661 318.271C79.3895 318.559 79.2384 318.939 79.2384 319.334C79.2384 319.729 79.3895 320.109 79.661 320.397C79.9325 320.685 80.3038 320.858 80.6993 320.883H153.904C154.107 320.89 154.311 320.858 154.502 320.787C154.693 320.717 154.868 320.609 155.017 320.471C155.166 320.333 155.287 320.167 155.372 319.982C155.457 319.797 155.505 319.598 155.512 319.395C155.52 319.192 155.488 318.989 155.417 318.799C155.346 318.609 155.238 318.434 155.1 318.285C154.961 318.136 154.794 318.016 154.609 317.931C154.424 317.846 154.224 317.799 154.02 317.791H80.6993V317.785Z" fill="#E6E6E6"/>
<path d="M58.5999 224.878C63.7465 224.878 67.9187 220.717 67.9187 215.586C67.9187 210.454 63.7465 206.294 58.5999 206.294C53.4532 206.294 49.281 210.454 49.281 215.586C49.281 220.717 53.4532 224.878 58.5999 224.878Z" fill="#6C63FF"/>
<path d="M54.1415 213.848C54.0308 213.848 53.9492 214.54 53.9492 215.394C53.9492 216.248 54.0308 216.945 54.1415 216.945H63.303C63.408 216.945 63.4954 216.277 63.5012 215.423C63.5593 214.89 63.4935 214.351 63.3089 213.848H54.1415Z" fill="#E6E6E6"/>
<path d="M58.5999 274.44C63.7465 274.44 67.9187 270.28 67.9187 265.148C67.9187 260.017 63.7465 255.856 58.5999 255.856C53.4532 255.856 49.281 260.017 49.281 265.148C49.281 270.28 53.4532 274.44 58.5999 274.44Z" fill="#6C63FF"/>
<path d="M54.1415 263.411C54.0308 263.411 53.9492 264.108 53.9492 264.962C53.9492 265.817 54.0308 266.508 54.1415 266.508H63.303C63.408 266.508 63.4954 265.84 63.5012 264.986C63.5593 264.453 63.4935 263.914 63.3089 263.411H54.1415Z" fill="#E6E6E6"/>
<path d="M58.5999 323.986C63.7465 323.986 67.9187 319.826 67.9187 314.694C67.9187 309.562 63.7465 305.402 58.5999 305.402C53.4532 305.402 49.281 309.562 49.281 314.694C49.281 319.826 53.4532 323.986 58.5999 323.986Z" fill="#6C63FF"/>
<path d="M54.1415 312.956C54.0308 312.956 53.9492 313.648 53.9492 314.502C53.9492 315.356 54.0308 316.054 54.1415 316.054H63.303C63.408 316.054 63.4954 315.385 63.5012 314.531C63.5593 313.998 63.4935 313.46 63.3089 312.956H54.1415Z" fill="#E6E6E6"/>
<path d="M89.907 100.887L86.6102 104.174L114.221 131.705L117.517 128.418L89.907 100.887Z" fill="white"/>
<path d="M114.221 100.887L86.6102 128.418L89.907 131.705L117.517 104.174L114.221 100.887Z" fill="white"/>
</svg>
